<?xml version="1.0" encoding="utf-8"?>
<!-- Generator: Adobe Illustrator 25.4.1, SVG Export Plug-In . SVG Version: 6.00 Build 0)  -->
<svg version="1.1" id="Layer_1" xmlns="http://www.w3.org/2000/svg" xmlns:xlink="http://www.w3.org/1999/xlink" x="0px" y="0px"
	 viewBox="0 0 1080 1080" style="enable-background:new 0 0 1080 1080;" xml:space="preserve">
<style type="text/css">
	.st0{display:none;fill:#010202;}
	.st1{display:none;fill:#70AEE0;}
	.st2{display:none;opacity:0.43;fill:#88C381;}
	.st3{fill:#39AA3A;}
	.st4{display:none;}
	.st5{display:inline;fill:#010202;}
	.st6{display:inline;fill:#A4D0A4;}
	.st7{display:none;fill:#39AA3A;}
</style>
<rect y="-6.28" class="st0" width="1086.28" height="1086.28"/>
<path class="st1" d="M566.96,331.81h-95.75L321.85,736.23h193.02c88.85-65.1,119.11-72,119.11-72l41.74,72h121.02L566.96,331.81z
	 M498.79,589.17l34.47-107.23l36.76,64.34C570.02,546.28,538.62,557,498.79,589.17z"/>
<rect x="322.62" y="331.81" class="st1" width="170.04" height="63.57"/>
<rect x="615.98" y="331.81" class="st1" width="170.04" height="63.57"/>
<polygon class="st2" points="347.43,773.92 264.73,692.29 669.86,523.91 752.56,605.54 "/>
<path class="st3" d="M-3.21,672.97"/>
<g>
	<ellipse class="st3" cx="706.17" cy="459.26" rx="28.05" ry="31.05"/>
	<path class="st3" d="M706.07,490.33c-0.03,0.01-0.05,0.01-0.07,0.02c-20.73,4.89-45.64,13.37-70.49,22.9l-2.4-5.7
		c44.96-12.39,70.44-16.8,72.88-17.21c0,0,0,0,0.01,0C706.02,490.34,706.04,490.33,706.07,490.33z"/>
	<path class="st3" d="M706.17,490.31c0,0-0.03,0.01-0.1,0.02C706.1,490.32,706.14,490.32,706.17,490.31z"/>
	<path class="st3" d="M1080,1014.11H810.11L704.43,762.75C592.99,818,452.16,896.97,275.46,1009.62c0,0-0.02,0-0.05,0.02
		c-1.95,1.23-3.9,2.49-5.85,3.72c-0.35,0.23-0.74,0.49-1.14,0.74H3.68l29.31-69.68l17.91-42.62l44.9-106.75L398.67,74.78h286.36
		l120.1,285.64l14.98,35.65l15.84,37.63c-67.33,18.58-147.49,42.37-239.4,72.56l-9.62-22.88l-45.11-107.26L472.51,541l-3.69,8.78
		l-34.54,82.18c0.02,0,0.07-0.02,0.09-0.05c3.18-1.53,77.37-37.74,180.03-83.24c52.03-23.06,111.39-48.52,172.55-73.07
		c18.95-7.6,38.07-15.12,57.18-22.46l2.28,5.46l94.72,225.27L1080,1014.11z"/>
	<g class="st4">
		<path class="st5" d="M907.5,604.14h-31.45v-18.82h-0.44c-11.22,15.06-25.47,22.59-42.74,22.59c-19.05,0-34.55-6.42-46.51-19.27
			c-11.96-12.84-17.94-29.08-17.94-48.72c0-19.49,5.98-35.66,17.94-48.5c11.96-12.84,27.46-19.27,46.51-19.27
			c17.42,0,31.67,7.46,42.74,22.37h0.44v-18.6h31.45V604.14z M865.42,567.6c7.09-7.82,10.63-17.05,10.63-27.68
			c0-10.48-3.54-19.63-10.63-27.46c-7.09-7.67-16.02-11.52-26.8-11.52c-10.78,0-19.71,3.84-26.8,11.52
			c-7.09,7.83-10.63,16.98-10.63,27.46c0,10.63,3.54,19.86,10.63,27.68c7.09,7.68,16.02,11.52,26.8,11.52
			C849.4,579.11,858.34,575.28,865.42,567.6z"/>
		<path class="st5" d="M1037.5,515.55h-30.12c0-5.76-2.03-10.22-6.09-13.4c-4.06-3.17-9.63-4.76-16.72-4.76
			c-6.5,0-11.44,1.26-14.84,3.77c-3.4,2.51-5.09,5.91-5.09,10.19c0,2.66,0.63,4.91,1.88,6.75c1.25,1.85,3.36,3.29,6.31,4.32
			c2.95,1.03,5.68,1.85,8.19,2.44c2.51,0.59,6.16,1.22,10.96,1.88c4.8,0.66,8.53,1.29,11.18,1.88c6.35,1.33,12.47,3.03,18.38,5.09
			c6.05,2.21,10.92,6.24,14.62,12.07c3.69,5.83,5.54,13.1,5.54,21.81c0,13.44-5.32,23.55-15.95,30.34
			c-10.34,6.64-24.07,9.97-41.19,9.97c-16.69,0-30.05-3.91-40.09-11.74c-9.89-7.97-14.84-18.53-14.84-31.67h30.34
			c0,5.32,2.29,9.63,6.87,12.96c4.58,3.32,10.48,4.98,17.72,4.98c7.67,0,13.73-1.29,18.16-3.88c4.43-2.58,6.64-6.24,6.64-10.96
			c0-2.95-0.63-5.35-1.88-7.2c-1.26-1.84-3.36-3.32-6.31-4.43c-2.96-1.11-5.61-1.92-7.97-2.44c-2.36-0.52-6.02-1.07-10.96-1.66
			c-4.95-0.59-8.67-1.11-11.18-1.55c-7.09-1.47-13.29-3.1-18.6-4.87c-5.91-2.21-10.67-6.24-14.28-12.07
			c-3.62-5.83-5.43-13.18-5.43-22.04c0-12.7,4.54-22.4,13.62-29.12c9.08-6.72,21.81-10.08,38.2-10.08c16.53,0,29.49,3.8,38.87,11.41
			C1032.81,491.16,1037.5,501.82,1037.5,515.55z"/>
		<path class="st5" d="M1167.28,515.55h-30.12c0-5.76-2.03-10.22-6.09-13.4c-4.06-3.17-9.63-4.76-16.72-4.76
			c-6.5,0-11.44,1.26-14.84,3.77c-3.4,2.51-5.09,5.91-5.09,10.19c0,2.66,0.63,4.91,1.88,6.75c1.25,1.85,3.36,3.29,6.31,4.32
			c2.95,1.03,5.68,1.85,8.19,2.44c2.51,0.59,6.16,1.22,10.96,1.88c4.8,0.66,8.53,1.29,11.18,1.88c6.35,1.33,12.47,3.03,18.38,5.09
			c6.05,2.21,10.92,6.24,14.62,12.07c3.69,5.83,5.54,13.1,5.54,21.81c0,13.44-5.32,23.55-15.95,30.34
			c-10.34,6.64-24.07,9.97-41.19,9.97c-16.69,0-30.05-3.91-40.09-11.74c-9.89-7.97-14.84-18.53-14.84-31.67h30.34
			c0,5.32,2.29,9.63,6.87,12.96c4.58,3.32,10.48,4.98,17.72,4.98c7.67,0,13.73-1.29,18.16-3.88c4.43-2.58,6.64-6.24,6.64-10.96
			c0-2.95-0.63-5.35-1.88-7.2c-1.26-1.84-3.36-3.32-6.31-4.43c-2.96-1.11-5.61-1.92-7.97-2.44c-2.36-0.52-6.02-1.07-10.96-1.66
			c-4.95-0.59-8.67-1.11-11.18-1.55c-7.09-1.47-13.29-3.1-18.6-4.87c-5.91-2.21-10.67-6.24-14.28-12.07
			c-3.62-5.83-5.43-13.18-5.43-22.04c0-12.7,4.54-22.4,13.62-29.12c9.08-6.72,21.81-10.08,38.2-10.08c16.53,0,29.49,3.8,38.87,11.41
			C1162.59,491.16,1167.28,501.82,1167.28,515.55z"/>
		<path class="st5" d="M1329.61,539.92c0,19.19-6.79,35.36-20.37,48.5c-13.44,12.99-30.05,19.49-49.83,19.49
			c-19.64,0-36.25-6.5-49.83-19.49c-13.59-13.14-20.38-29.31-20.38-48.5c0-19.05,6.79-35.14,20.38-48.28
			c13.58-12.99,30.19-19.49,49.83-19.49c19.78,0,36.39,6.5,49.83,19.49C1322.82,504.78,1329.61,520.87,1329.61,539.92z
			 M1296.83,539.92c0-11.81-3.4-21.33-10.19-28.57c-6.79-7.53-15.87-11.29-27.24-11.29c-11.37,0-20.45,3.77-27.24,11.29
			c-6.79,7.38-10.19,16.91-10.19,28.57c0,11.81,3.39,21.41,10.19,28.79c6.79,7.53,15.87,11.29,27.24,11.29
			c11.37,0,20.45-3.69,27.24-11.07C1293.44,561.55,1296.83,551.87,1296.83,539.92z"/>
		<path class="st5" d="M1455.18,515.55h-30.12c0-5.76-2.03-10.22-6.09-13.4c-4.06-3.17-9.63-4.76-16.72-4.76
			c-6.5,0-11.44,1.26-14.84,3.77c-3.4,2.51-5.09,5.91-5.09,10.19c0,2.66,0.63,4.91,1.88,6.75c1.25,1.85,3.36,3.29,6.31,4.32
			c2.95,1.03,5.68,1.85,8.19,2.44c2.51,0.59,6.16,1.22,10.96,1.88c4.8,0.66,8.53,1.29,11.18,1.88c6.35,1.33,12.47,3.03,18.38,5.09
			c6.05,2.21,10.92,6.24,14.62,12.07c3.69,5.83,5.54,13.1,5.54,21.81c0,13.44-5.32,23.55-15.95,30.34
			c-10.34,6.64-24.07,9.97-41.19,9.97c-16.69,0-30.05-3.91-40.09-11.74c-9.89-7.97-14.84-18.53-14.84-31.67h30.34
			c0,5.32,2.29,9.63,6.87,12.96c4.58,3.32,10.48,4.98,17.72,4.98c7.67,0,13.73-1.29,18.16-3.88c4.43-2.58,6.64-6.24,6.64-10.96
			c0-2.95-0.63-5.35-1.88-7.2c-1.26-1.84-3.36-3.32-6.31-4.43c-2.96-1.11-5.61-1.92-7.97-2.44c-2.36-0.52-6.02-1.07-10.96-1.66
			c-4.95-0.59-8.67-1.11-11.18-1.55c-7.09-1.47-13.29-3.1-18.6-4.87c-5.91-2.21-10.67-6.24-14.28-12.07
			c-3.62-5.83-5.43-13.18-5.43-22.04c0-12.7,4.54-22.4,13.62-29.12c9.08-6.72,21.81-10.08,38.2-10.08c16.53,0,29.49,3.8,38.87,11.41
			C1450.49,491.16,1455.18,501.82,1455.18,515.55z"/>
	</g>
	<g class="st4">
		<path class="st6" d="M898.65,603.26H867.2v-18.82h-0.44c-11.22,15.06-25.47,22.59-42.74,22.59c-19.05,0-34.55-6.42-46.51-19.27
			c-11.96-12.84-17.94-29.08-17.94-48.72c0-19.49,5.98-35.66,17.94-48.5c11.96-12.84,27.46-19.27,46.51-19.27
			c17.42,0,31.67,7.46,42.74,22.37h0.44v-18.6h31.45V603.26z M856.57,566.72c7.09-7.82,10.63-17.05,10.63-27.68
			c0-10.48-3.54-19.63-10.63-27.46c-7.09-7.67-16.02-11.52-26.8-11.52c-10.78,0-19.71,3.84-26.8,11.52
			c-7.09,7.83-10.63,16.98-10.63,27.46c0,10.63,3.54,19.86,10.63,27.68c7.09,7.68,16.02,11.52,26.8,11.52
			C840.54,578.24,849.48,574.4,856.57,566.72z"/>
		<path class="st6" d="M1028.64,514.68h-30.12c0-5.76-2.03-10.22-6.09-13.4c-4.06-3.17-9.63-4.76-16.72-4.76
			c-6.5,0-11.45,1.26-14.84,3.77c-3.4,2.51-5.09,5.91-5.09,10.19c0,2.66,0.63,4.91,1.88,6.75c1.25,1.85,3.36,3.29,6.31,4.32
			c2.95,1.03,5.68,1.85,8.19,2.44c2.51,0.59,6.16,1.22,10.96,1.88c4.8,0.66,8.53,1.29,11.18,1.88c6.35,1.33,12.47,3.03,18.38,5.09
			c6.05,2.21,10.92,6.24,14.62,12.07c3.69,5.83,5.54,13.11,5.54,21.81c0,13.44-5.31,23.55-15.95,30.34
			c-10.34,6.64-24.07,9.97-41.19,9.97c-16.69,0-30.05-3.91-40.09-11.74c-9.89-7.97-14.84-18.53-14.84-31.67h30.34
			c0,5.32,2.29,9.63,6.87,12.96c4.58,3.32,10.48,4.98,17.72,4.98c7.67,0,13.73-1.29,18.16-3.88c4.43-2.58,6.64-6.24,6.64-10.96
			c0-2.95-0.63-5.35-1.88-7.2c-1.26-1.84-3.36-3.32-6.31-4.43c-2.96-1.11-5.61-1.92-7.97-2.44c-2.36-0.52-6.02-1.07-10.96-1.66
			c-4.95-0.59-8.68-1.11-11.18-1.55c-7.09-1.47-13.29-3.1-18.6-4.87c-5.91-2.21-10.67-6.24-14.29-12.07
			c-3.62-5.83-5.42-13.18-5.42-22.04c0-12.7,4.54-22.4,13.62-29.12c9.08-6.72,21.81-10.08,38.2-10.08c16.53,0,29.49,3.8,38.87,11.41
			C1023.96,490.28,1028.64,500.95,1028.64,514.68z"/>
		<path class="st6" d="M1158.42,514.68h-30.12c0-5.76-2.03-10.22-6.09-13.4c-4.06-3.17-9.63-4.76-16.72-4.76
			c-6.5,0-11.44,1.26-14.84,3.77c-3.4,2.51-5.09,5.91-5.09,10.19c0,2.66,0.63,4.91,1.88,6.75c1.25,1.85,3.36,3.29,6.31,4.32
			c2.95,1.03,5.68,1.85,8.19,2.44c2.51,0.59,6.16,1.22,10.96,1.88c4.8,0.66,8.53,1.29,11.18,1.88c6.35,1.33,12.47,3.03,18.38,5.09
			c6.05,2.21,10.92,6.24,14.62,12.07c3.69,5.83,5.54,13.11,5.54,21.81c0,13.44-5.32,23.55-15.95,30.34
			c-10.34,6.64-24.07,9.97-41.19,9.97c-16.69,0-30.05-3.91-40.09-11.74c-9.89-7.97-14.84-18.53-14.84-31.67h30.34
			c0,5.32,2.29,9.63,6.87,12.96c4.58,3.32,10.48,4.98,17.72,4.98c7.67,0,13.73-1.29,18.16-3.88c4.43-2.58,6.64-6.24,6.64-10.96
			c0-2.95-0.63-5.35-1.88-7.2c-1.26-1.84-3.36-3.32-6.31-4.43c-2.96-1.11-5.61-1.92-7.97-2.44c-2.36-0.52-6.02-1.07-10.96-1.66
			c-4.95-0.59-8.67-1.11-11.18-1.55c-7.09-1.47-13.29-3.1-18.6-4.87c-5.91-2.21-10.67-6.24-14.28-12.07
			c-3.62-5.83-5.43-13.18-5.43-22.04c0-12.7,4.54-22.4,13.62-29.12c9.08-6.72,21.81-10.08,38.2-10.08c16.53,0,29.49,3.8,38.87,11.41
			C1153.73,490.28,1158.42,500.95,1158.42,514.68z"/>
		<path class="st6" d="M1320.75,539.04c0,19.19-6.79,35.36-20.37,48.5c-13.44,12.99-30.05,19.49-49.83,19.49
			c-19.64,0-36.25-6.5-49.83-19.49c-13.59-13.14-20.38-29.31-20.38-48.5c0-19.05,6.79-35.14,20.38-48.28
			c13.58-12.99,30.19-19.49,49.83-19.49c19.78,0,36.39,6.5,49.83,19.49C1313.96,503.9,1320.75,519.99,1320.75,539.04z
			 M1287.98,539.04c0-11.81-3.4-21.33-10.19-28.57c-6.79-7.53-15.87-11.29-27.24-11.29c-11.37,0-20.45,3.77-27.24,11.29
			c-6.79,7.38-10.19,16.91-10.19,28.57c0,11.81,3.39,21.41,10.19,28.79c6.79,7.53,15.87,11.29,27.24,11.29
			c11.37,0,20.45-3.69,27.24-11.07C1284.58,560.67,1287.98,551,1287.98,539.04z"/>
		<path class="st6" d="M1446.32,514.68h-30.12c0-5.76-2.03-10.22-6.09-13.4c-4.06-3.17-9.63-4.76-16.72-4.76
			c-6.5,0-11.44,1.26-14.84,3.77c-3.4,2.51-5.09,5.91-5.09,10.19c0,2.66,0.63,4.91,1.88,6.75c1.25,1.85,3.36,3.29,6.31,4.32
			c2.95,1.03,5.68,1.85,8.19,2.44c2.51,0.59,6.16,1.22,10.96,1.88c4.8,0.66,8.53,1.29,11.18,1.88c6.35,1.33,12.47,3.03,18.38,5.09
			c6.05,2.21,10.92,6.24,14.62,12.07c3.69,5.83,5.54,13.11,5.54,21.81c0,13.44-5.32,23.55-15.95,30.34
			c-10.34,6.64-24.07,9.97-41.19,9.97c-16.69,0-30.05-3.91-40.09-11.74c-9.89-7.97-14.84-18.53-14.84-31.67h30.34
			c0,5.32,2.29,9.63,6.87,12.96c4.58,3.32,10.48,4.98,17.72,4.98c7.67,0,13.73-1.29,18.16-3.88c4.43-2.58,6.64-6.24,6.64-10.96
			c0-2.95-0.63-5.35-1.88-7.2c-1.26-1.84-3.36-3.32-6.31-4.43c-2.96-1.11-5.61-1.92-7.97-2.44c-2.36-0.52-6.02-1.07-10.96-1.66
			c-4.95-0.59-8.67-1.11-11.18-1.55c-7.09-1.47-13.29-3.1-18.6-4.87c-5.91-2.21-10.67-6.24-14.28-12.07
			c-3.62-5.83-5.43-13.18-5.43-22.04c0-12.7,4.54-22.4,13.62-29.12c9.08-6.72,21.81-10.08,38.2-10.08c16.53,0,29.49,3.8,38.87,11.41
			C1441.63,490.28,1446.32,500.95,1446.32,514.68z"/>
	</g>
</g>
<path class="st7" d="M422.34,516.82c0,0-0.02,0-0.06,0.01C422.3,516.83,422.32,516.83,422.34,516.82z"/>
<path class="st7" d="M656.8,433.79c-0.02,0.01-0.04,0.01-0.06,0.02c-15.43,3.64-33.98,9.95-52.48,17.05l-1.78-4.24
	c33.47-9.22,52.44-12.51,54.26-12.81c0,0,0,0,0.01,0C656.76,433.8,656.78,433.79,656.8,433.79z"/>
<ellipse class="st7" cx="656.87" cy="410.66" rx="20.88" ry="23.11"/>
<path class="st7" d="M655.71,573.22h-58.87l-23.05-54.83c-24.31,12.05-55.03,29.28-93.57,53.85c0,0-0.01,0-0.01,0.01
	c-0.43,0.27-0.85,0.54-1.28,0.81c-0.08,0.05-0.16,0.11-0.25,0.16h-57.75l6.39-15.2l3.91-9.3l9.79-23.29l66.07-157.12h62.46
	l26.2,62.31l3.27,7.78l3.46,8.21c-14.69,4.05-32.17,9.24-52.22,15.83l-2.1-4.99l-9.84-23.4l-15.12,35.97l-0.81,1.92l-7.53,17.93
	c0.01,0,0.02-0.01,0.02-0.01c0.69-0.33,16.88-8.23,39.27-18.16c11.35-5.03,24.3-10.58,37.64-15.94c4.13-1.66,8.3-3.3,12.47-4.9
	l0.5,1.19l20.66,49.14L655.71,573.22z"/>
<g class="st4">
	<path class="st5" d="M391.88,707.16h-24.2v-14.49h-0.34c-8.64,11.59-19.6,17.38-32.89,17.38c-14.66,0-26.59-4.94-35.79-14.83
		s-13.8-22.38-13.8-37.49c0-15,4.6-27.44,13.8-37.32s21.13-14.83,35.79-14.83c13.41,0,24.37,5.74,32.89,17.21h0.34v-14.32h24.2
		V707.16z M359.5,679.04c5.45-6.02,8.18-13.12,8.18-21.3c0-8.07-2.73-15.11-8.18-21.13c-5.45-5.91-12.33-8.86-20.62-8.86
		c-8.29,0-15.17,2.96-20.62,8.86c-5.45,6.02-8.18,13.07-8.18,21.13c0,8.18,2.73,15.28,8.18,21.3c5.45,5.91,12.33,8.86,20.62,8.86
		C347.17,687.9,354.04,684.95,359.5,679.04z"/>
	<path class="st5" d="M491.92,638.99h-23.18c0-4.43-1.56-7.87-4.69-10.31c-3.13-2.44-7.41-3.66-12.87-3.66c-5,0-8.81,0.97-11.42,2.9
		c-2.62,1.93-3.92,4.55-3.92,7.84c0,2.04,0.48,3.78,1.45,5.2c0.96,1.42,2.58,2.53,4.86,3.32c2.27,0.8,4.37,1.42,6.31,1.88
		c1.93,0.46,4.74,0.94,8.44,1.45c3.69,0.51,6.56,1,8.61,1.45c4.88,1.02,9.6,2.33,14.15,3.92c4.66,1.7,8.41,4.8,11.25,9.29
		c2.84,4.49,4.26,10.08,4.26,16.79c0,10.34-4.09,18.12-12.27,23.35c-7.95,5.11-18.52,7.67-31.7,7.67c-12.84,0-23.12-3.01-30.85-9.03
		c-7.61-6.13-11.42-14.26-11.42-24.37h23.35c0,4.09,1.76,7.41,5.28,9.97c3.52,2.56,8.07,3.83,13.63,3.83
		c5.91,0,10.57-0.99,13.98-2.98c3.41-1.99,5.11-4.8,5.11-8.44c0-2.27-0.48-4.12-1.45-5.54c-0.97-1.42-2.59-2.56-4.86-3.41
		c-2.27-0.85-4.32-1.47-6.14-1.87c-1.82-0.4-4.63-0.82-8.44-1.28c-3.81-0.45-6.68-0.85-8.61-1.19c-5.45-1.13-10.23-2.39-14.32-3.75
		c-4.55-1.7-8.21-4.8-10.99-9.29c-2.79-4.49-4.18-10.14-4.18-16.96c0-9.77,3.49-17.24,10.48-22.41c6.99-5.17,16.79-7.75,29.4-7.75
		c12.72,0,22.69,2.93,29.91,8.78C488.31,620.22,491.92,628.43,491.92,638.99z"/>
	<path class="st5" d="M591.79,638.99h-23.18c0-4.43-1.56-7.87-4.69-10.31c-3.13-2.44-7.41-3.66-12.87-3.66c-5,0-8.81,0.97-11.42,2.9
		c-2.61,1.93-3.92,4.55-3.92,7.84c0,2.04,0.48,3.78,1.45,5.2c0.96,1.42,2.58,2.53,4.86,3.32c2.27,0.8,4.37,1.42,6.31,1.88
		c1.93,0.46,4.74,0.94,8.44,1.45c3.69,0.51,6.56,1,8.61,1.45c4.88,1.02,9.6,2.33,14.15,3.92c4.66,1.7,8.41,4.8,11.25,9.29
		c2.84,4.49,4.26,10.08,4.26,16.79c0,10.34-4.09,18.12-12.27,23.35c-7.96,5.11-18.52,7.67-31.7,7.67c-12.84,0-23.12-3.01-30.85-9.03
		c-7.61-6.13-11.42-14.26-11.42-24.37h23.35c0,4.09,1.76,7.41,5.28,9.97c3.52,2.56,8.06,3.83,13.63,3.83
		c5.91,0,10.57-0.99,13.98-2.98c3.41-1.99,5.11-4.8,5.11-8.44c0-2.27-0.48-4.12-1.45-5.54c-0.97-1.42-2.59-2.56-4.86-3.41
		c-2.27-0.85-4.32-1.47-6.14-1.87c-1.82-0.4-4.63-0.82-8.44-1.28c-3.81-0.45-6.68-0.85-8.61-1.19c-5.45-1.13-10.23-2.39-14.32-3.75
		c-4.55-1.7-8.21-4.8-10.99-9.29c-2.79-4.49-4.18-10.14-4.18-16.96c0-9.77,3.49-17.24,10.48-22.41c6.99-5.17,16.79-7.75,29.4-7.75
		c12.72,0,22.69,2.93,29.91,8.78C588.18,620.22,591.79,628.43,591.79,638.99z"/>
	<path class="st5" d="M716.71,657.74c0,14.77-5.23,27.21-15.68,37.32c-10.34,10-23.12,15-38.35,15c-15.11,0-27.89-5-38.35-15
		c-10.45-10.11-15.68-22.55-15.68-37.32c0-14.66,5.22-27.04,15.68-37.15c10.45-10,23.23-15,38.35-15c15.22,0,28.01,5,38.35,15
		C711.48,630.7,716.71,643.08,716.71,657.74z M691.49,657.74c0-9.09-2.61-16.42-7.84-21.99c-5.23-5.79-12.21-8.69-20.96-8.69
		c-8.75,0-15.74,2.9-20.96,8.69c-5.23,5.68-7.84,13.01-7.84,21.99c0,9.09,2.61,16.48,7.84,22.16c5.22,5.79,12.21,8.69,20.96,8.69
		c8.75,0,15.74-2.84,20.96-8.52C688.87,674.38,691.49,666.94,691.49,657.74z"/>
	<path class="st5" d="M813.34,638.99h-23.18c0-4.43-1.56-7.87-4.69-10.31c-3.13-2.44-7.41-3.66-12.87-3.66c-5,0-8.81,0.97-11.42,2.9
		c-2.61,1.93-3.92,4.55-3.92,7.84c0,2.04,0.48,3.78,1.45,5.2c0.96,1.42,2.58,2.53,4.86,3.32c2.27,0.8,4.37,1.42,6.31,1.88
		c1.93,0.46,4.74,0.94,8.44,1.45c3.69,0.51,6.56,1,8.61,1.45c4.88,1.02,9.6,2.33,14.15,3.92c4.66,1.7,8.41,4.8,11.25,9.29
		c2.84,4.49,4.26,10.08,4.26,16.79c0,10.34-4.09,18.12-12.27,23.35c-7.96,5.11-18.52,7.67-31.7,7.67c-12.84,0-23.12-3.01-30.85-9.03
		c-7.61-6.13-11.42-14.26-11.42-24.37h23.35c0,4.09,1.76,7.41,5.28,9.97c3.52,2.56,8.07,3.83,13.63,3.83
		c5.91,0,10.57-0.99,13.98-2.98c3.41-1.99,5.11-4.8,5.11-8.44c0-2.27-0.48-4.12-1.45-5.54c-0.97-1.42-2.59-2.56-4.86-3.41
		c-2.27-0.85-4.32-1.47-6.14-1.87c-1.82-0.4-4.63-0.82-8.44-1.28c-3.81-0.45-6.68-0.85-8.61-1.19c-5.45-1.13-10.23-2.39-14.32-3.75
		c-4.55-1.7-8.21-4.8-10.99-9.29c-2.79-4.49-4.18-10.14-4.18-16.96c0-9.77,3.49-17.24,10.48-22.41c6.99-5.17,16.79-7.75,29.4-7.75
		c12.72,0,22.69,2.93,29.91,8.78C809.73,620.22,813.34,628.43,813.34,638.99z"/>
</g>
<g>
</g>
<g>
</g>
<g>
</g>
<g>
</g>
<g>
</g>
<g>
</g>
</svg>
